<svg width="164" height="182" xmlns="http://www.w3.org/2000/svg" xmlns:xlink="http://www.w3.org/1999/xlink" overflow="hidden"><defs><clipPath id="clip0"><rect x="564" y="173" width="164" height="182"/></clipPath></defs><g clip-path="url(#clip0)" transform="translate(-564 -173)"><path d="M625 208 625 221.866" stroke="#3C3C3B" stroke-width="2" stroke-miterlimit="8" fill="none" fill-rule="evenodd"/><path d="M667 281 667 294.866" stroke="#3C3C3B" stroke-width="2" stroke-miterlimit="8" fill="none" fill-rule="evenodd"/><path d="M697.92 246.429 678.281 257.767" stroke="#3C3C3B" stroke-width="2" stroke-miterlimit="8" fill="none" fill-rule="evenodd"/><path d="M612.56 243.034 592.921 254.373" stroke="#3C3C3B" stroke-width="2" stroke-miterlimit="8" fill="none" fill-rule="evenodd"/><path d="M614.563 249.458 594.924 260.797" stroke="#3C3C3B" stroke-width="2" stroke-miterlimit="8" fill="none" fill-rule="evenodd"/><path d="M653.671 319.617 634.032 330.955" stroke="#3C3C3B" stroke-width="2" stroke-miterlimit="8" fill="none" fill-rule="evenodd"/><path d="M633.883 243.789 653.522 255.127" stroke="#3C3C3B" stroke-width="2" stroke-miterlimit="8" fill="none" fill-rule="evenodd"/><path d="M608.5 191.5C608.5 182.111 616.111 174.5 625.5 174.5 634.889 174.5 642.5 182.111 642.5 191.5 642.5 200.889 634.889 208.5 625.5 208.5 616.111 208.5 608.5 200.889 608.5 191.5Z" stroke="#905799" stroke-width="1.33333" stroke-miterlimit="8" fill="#905799" fill-rule="evenodd"/><path d="M608.5 337.5C608.5 328.111 616.111 320.5 625.5 320.5 634.889 320.5 642.5 328.111 642.5 337.5 642.5 346.889 634.889 354.5 625.5 354.5 616.111 354.5 608.5 346.889 608.5 337.5Z" stroke="#3EAC6F" stroke-width="1.33333" stroke-miterlimit="8" fill="#3EAC6F" fill-rule="evenodd"/><path d="M692.5 239.5C692.5 230.111 700.111 222.5 709.5 222.5 718.889 222.5 726.5 230.111 726.5 239.5 726.5 248.889 718.889 256.5 709.5 256.5 700.111 256.5 692.5 248.889 692.5 239.5Z" stroke="#0077C4" stroke-width="1.33333" stroke-miterlimit="8" fill="#0077C4" fill-rule="evenodd"/><path d="M565.5 264.5C565.5 255.111 573.111 247.5 582.5 247.5 591.889 247.5 599.5 255.111 599.5 264.5 599.5 273.889 591.889 281.5 582.5 281.5 573.111 281.5 565.5 273.889 565.5 264.5Z" stroke="#905799" stroke-width="1.33333" stroke-miterlimit="8" fill="#905799" fill-rule="evenodd"/><path d="M608.5 239.5C608.5 230.111 616.111 222.5 625.5 222.5 634.889 222.5 642.5 230.111 642.5 239.5 642.5 248.889 634.889 256.5 625.5 256.5 616.111 256.5 608.5 248.889 608.5 239.5Z" stroke="#3C3C3B" stroke-width="1.33333" stroke-miterlimit="8" fill="#3C3C3B" fill-rule="evenodd"/><path d="M650.5 264.5C650.5 255.111 658.111 247.5 667.5 247.5 676.889 247.5 684.5 255.111 684.5 264.5 684.5 273.889 676.889 281.5 667.5 281.5 658.111 281.5 650.5 273.889 650.5 264.5Z" stroke="#3C3C3B" stroke-width="1.33333" stroke-miterlimit="8" fill="#3C3C3B" fill-rule="evenodd"/><path d="M650.5 312.5C650.5 303.111 658.111 295.5 667.5 295.5 676.889 295.5 684.5 303.111 684.5 312.5 684.5 321.889 676.889 329.5 667.5 329.5 658.111 329.5 650.5 321.889 650.5 312.5Z" stroke="#3C3C3B" stroke-width="1.33333" stroke-miterlimit="8" fill="#3C3C3B" fill-rule="evenodd"/></g></svg>